<?xml version="1.0" encoding="utf-8"?>
<!-- Generator: Adobe Illustrator 23.0.0, SVG Export Plug-In . SVG Version: 6.00 Build 0)  -->
<svg version="1.1" id="Calque_1" xmlns="http://www.w3.org/2000/svg" xmlns:xlink="http://www.w3.org/1999/xlink" x="0px" y="0px"
	 viewBox="0 0 24 24" style="enable-background:new 0 0 24 24;" xml:space="preserve">
<style type="text/css">
	.st0{fill:#FFFFFF;}
</style>
<path class="st0" d="M0,0.5v23C0,23.8,0.2,24,0.5,24h23c0.3,0,0.5-0.2,0.5-0.5v-23C24,0.2,23.8,0,23.5,0h-23C0.2,0,0,0.2,0,0.5z
	 M8,19H5V8h3V19z M6.5,6.7c-1,0-1.8-0.8-1.8-1.8s0.8-1.8,1.8-1.8S8.3,4,8.3,5S7.5,6.7,6.5,6.7z M20,19h-3v-5.6c0-3.4-4-3.1-4,0V19
	h-3V8h3v1.8c1.4-2.6,7-2.8,7,2.5V19z"/>
</svg>
